:SAMPLES-PER-SECOND 30
:FULLY-SPECIFIED
:DEGREES
396
root  -35.0842 37.8466 -26.743 176.638 -88.1255 -160.559
RightUpLeg  -48.5929 -19.5859 5.53437
RightLeg  17.6675 4.83955 2.81003
RightFoot  15.1594 0.293651 -0.852966
RightToes  0.00048216 0.542163 -0.142577
Spine  59.3331 -4.55626 7.04095
Spine1  10.8214 -0.014177 -2.14789
HEad  -35.6265 -4.81054 -4.73096
LeftShoulder1  10.4126 -24.8059 -30.572
LeftArm  -37.2303 -57.6231 -13.902
LeftForeArm  -5.19482 -15.1356 -4.0717
LeftHand  -0.25398 0.0180481 5.50724
RightShoulder  4.12787 12.8396 18.7581
RightArm  -30.5162 48.2239 11.0103
RightForeArm  -45.4147 23.5368 6.94342
RightHand  0.0537252 -2.40081 2.85815
LeftUpLeg  -50.6571 16.784 -12.1639
LeftLeg  29.8243 -2.23785 -1.03736
LeftFoot  4.03546 -1.62271 11.7948
LeftToes  1.06246e-005 4.65856e-005 -8.18501e-006
397
root  -35.5967 37.662 -27.3201 151.539 -88.6407 -132.991
RightUpLeg  -53.7806 -20.9384 9.77647
RightLeg  22.4052 6.68895 2.64744
RightFoot  12.4631 0.703113 -2.92712
RightToes  0.00048216 0.542163 -0.142577
Spine  61.2019 -4.95444 7.93339
Spine1  10.6825 0.392501 -2.51794
HEad  -38.6642 -5.16295 -4.9959
LeftShoulder1  10.4603 -25.8532 -29.3779
LeftArm  -42.8058 -60.7777 -5.83608
LeftForeArm  -7.81177 -12.5401 -4.04592
LeftHand  -0.25398 0.0180481 5.50724
RightShoulder  3.94063 13.3201 16.7653
RightArm  -37.6286 50.0263 6.00627
RightForeArm  -43.3455 21.7509 6.77744
RightHand  0.115074 -1.88296 4.29991
LeftUpLeg  -53.8794 15.6481 -10.868
LeftLeg  32.5772 -1.84441 -0.914795
LeftFoot  2.50577 -1.3273 10.775
LeftToes  1.06246e-005 4.65856e-005 -8.18501e-006
398
root  -36.11 37.544 -27.8838 113.438 -88.7678 -92.406
RightUpLeg  -57.3045 -20.5764 11.5904
RightLeg  25.7658 5.83853 2.83862
RightFoot  9.57394 0.866083 -4.32172
RightToes  0.00048216 0.542163 -0.142577
Spine  63.8468 -5.18687 8.28004
Spine1  8.89083 0.511927 -2.64208
HEad  -40.425 -5.05802 -5.0497
LeftShoulder1  10.0613 -26.5277 -27.1802
LeftArm  -48.1596 -61.7678 -0.393324
LeftForeArm  -8.83359 -12.0277 -3.57472
LeftHand  -0.25398 0.0180481 5.50724
RightShoulder  3.98449 14.1023 15.894
RightArm  -43.9921 51.2024 0.739458
RightForeArm  -39.1221 19.9604 6.54287
RightHand  0.286448 -0.133967 6.36253
LeftUpLeg  -56.6346 14.6742 -9.77083
LeftLeg  34.3313 -1.62261 -0.832961
LeftFoot  1.55252 -1.13292 9.9185
LeftToes  1.06246e-005 4.65856e-005 -8.18501e-006
399
root  -36.6396 37.4697 -28.4425 72.5891 -88.7711 -48.8006
RightUpLeg  -60.6793 -20.6982 13.5065
RightLeg  27.8937 5.29852 2.80455
RightFoot  8.14667 1.00372 -5.50584
RightToes  0.00048216 0.542163 -0.142577
Spine  66.2532 -5.20116 8.20238
Spine1  6.88279 0.535857 -2.56674
HEad  -41.4671 -5.13033 -5.02064
LeftShoulder1  9.71631 -27.121 -25.326
LeftArm  -53.7535 -62.2196 4.29687
LeftForeArm  -8.47865 -12.4378 -2.85532
LeftHand  -0.25398 0.0180481 5.50724
RightShoulder  3.98823 14.5998 15.2346
RightArm  -50.1742 51.8664 -4.0813
RightForeArm  -34.0707 18.6259 6.14053
RightHand  0.549951 1.98091 8.45846
LeftUpLeg  -59.2318 13.9296 -9.51153
LeftLeg  35.1869 -1.72804 -0.94688
LeftFoot  0.946693 -0.967312 8.91197
LeftToes  1.06246e-005 4.65856e-005 -8.18501e-006
400
root  -37.188 37.4167 -28.9488 40.8347 -88.4549 -14.1721
RightUpLeg  -64.0853 -20.6367 15.1183
RightLeg  29.7129 4.85797 2.75529
RightFoot  6.94155 1.09594 -6.50643
RightToes  0.00048216 0.542163 -0.142577
Spine  68.1292 -5.32549 8.08457
Spine1  5.27413 0.521923 -2.8864
HEad  -42.4494 -5.213 -4.95065
LeftShoulder1  9.59478 -27.7061 -24.2853
LeftArm  -59.7326 -62.5044 10.7762
LeftForeArm  -8.42414 -12.7456 -2.44414
LeftHand  -0.25398 0.0180481 5.50724
RightShoulder  3.901 14.8259 14.414
RightArm  -55.9631 52.257 -8.40547
RightForeArm  -30.1333 17.8538 5.6715
RightHand  0.802342 3.79219 9.79728
LeftUpLeg  -61.7092 13.4442 -9.67959
LeftLeg  35.6549 -1.91107 -1.10862
LeftFoot  0.231594 -0.785227 7.71963
LeftToes  1.06246e-005 4.65856e-005 -8.18501e-006
401
root  -37.7288 37.3583 -29.3779 33.9239 -88.057 -4.62545
RightUpLeg  -67.1146 -20.1182 16.5519
RightLeg  31.566 4.57051 2.77932
RightFoot  5.30143 1.15259 -7.6169
RightToes  0.00048216 0.542163 -0.142577
Spine  69.819 -5.46843 8.13136
Spine1  3.68571 0.700735 -3.71341
HEad  -43.2617 -5.31396 -4.64625
LeftShoulder1  9.46533 -28.5084 -23.0364
LeftArm  -64.6804 -62.2223 16.7948
LeftForeArm  -9.22957 -12.9764 -2.23679
LeftHand  -0.25398 0.0180481 5.50724
RightShoulder  3.916 15.0577 14.208
RightArm  -60.3404 52.0642 -12.6845
RightForeArm  -28.2326 17.6298 5.36771
RightHand  0.994493 5.27878 10.3786
LeftUpLeg  -64.0216 13.1137 -9.52339
LeftLeg  36.2868 -1.89781 -1.12939
LeftFoot  -0.540264 -0.621515 6.60336
LeftToes  1.06246e-005 4.65856e-005 -8.18501e-006
402
root  -38.2403 37.2895 -29.7438 36.5123 -87.761 -4.87907
RightUpLeg  -69.5071 -19.4423 17.9425
RightLeg  33.012 4.29205 2.74761
RightFoot  3.91283 1.17951 -8.57951
RightToes  0.00048216 0.542163 -0.142577
Spine  71.3789 -5.17821 8.06657
Spine1  2.03963 1.06909 -4.00711
HEad  -43.7691 -5.43441 -4.48655
LeftShoulder1  9.1684 -29.2365 -21.3595
LeftArm  -68.9297 -61.6081 20.3942
LeftForeArm  -9.62459 -13.6498 -1.85034
LeftHand  -0.25398 0.0180481 5.50724
RightShoulder  3.90439 15.297 13.8367
RightArm  -63.5117 51.2941 -15.8698
RightForeArm  -27.0443 17.8158 5.17532
RightHand  1.16641 6.5239 10.8605
LeftUpLeg  -66.1979 12.8295 -9.10411
LeftLeg  37.1041 -1.59533 -0.924921
LeftFoot  -1.08908 -0.509223 5.74729
LeftToes  1.06246e-005 4.65856e-005 -8.18501e-006
403
root  -38.7281 37.23 -30.0607 36.8404 -87.4755 -3.01669
RightUpLeg  -71.509 -18.8459 19.0663
RightLeg  33.9735 3.92054 2.58318
RightFoot  2.90408 1.13824 -8.92033
RightToes  0.00048216 0.542163 -0.142577
Spine  72.3328 -4.03076 7.62886
Spine1  1.33721 1.51101 -2.24827
HEad  -44.4099 -5.72015 -5.41805
LeftShoulder1  9.05403 -29.4806 -20.7723
LeftArm  -74.902 -61.2893 23.9738
LeftForeArm  -8.47818 -14.7224 -1.31706
LeftHand  -0.25398 0.0180481 5.50724
RightShoulder  3.42294 15.1273 11.209
RightArm  -66.884 50.5405 -17.2684
RightForeArm  -25.021 17.8868 4.82641
RightHand  1.32542 7.60011 11.2992
LeftUpLeg  -68.1881 12.676 -9.10431
LeftLeg  37.7233 -1.10137 -0.542058
LeftFoot  -1.58562 -0.426382 5.10474
LeftToes  1.06246e-005 4.65856e-005 -8.18501e-006
404
root  -39.2012 37.1979 -30.3297 34.524 -87.1976 1.31825
RightUpLeg  -73.2166 -18.1736 19.6395
RightLeg  34.7936 3.40439 2.28078
RightFoot  1.73875 1.06011 -9.12057
RightToes  0.00048216 0.542163 -0.142577
Spine  73.2802 -4.14357 7.53625
Spine1  0.395553 1.5999 -3.25119
HEad  -44.4913 -5.81202 -4.95426
LeftShoulder1  8.3042 -29.67 -18.1781
LeftArm  -79.3905 -60.5813 25.7089
LeftForeArm  -6.73437 -15.545 -0.882853
LeftHand  -0.25398 0.0180481 5.50724
RightShoulder  3.60913 15.5152 11.8491
RightArm  -69.2719 50.0147 -20.5218
RightForeArm  -23.5286 17.2671 4.50661
RightHand  1.43369 8.79555 11.1564
LeftUpLeg  -69.7956 12.8066 -9.70196
LeftLeg  37.9328 -0.709255 -0.219997
LeftFoot  -2.32735 -0.347232 4.58045
LeftToes  1.06246e-005 4.65856e-005 -8.18501e-006
405
root  -39.6524 37.1957 -30.5523 33.3858 -86.9508 4.1497
RightUpLeg  -74.437 -17.3993 19.8374
RightLeg  35.4868 2.77209 1.85904
RightFoot  0.468126 1.00978 -9.70127
RightToes  0.00048216 0.542163 -0.142577
Spine  74.1272 -5.04246 7.57579
Spine1  -0.0732432 1.37493 -5.81535
HEad  -44.4688 -5.63204 -3.63955
LeftShoulder1  7.00818 -29.3666 -14.1936
LeftArm  -82.7537 -59.8121 26.6883
LeftForeArm  -5.7693 -15.9625 -0.514771
LeftHand  -0.25398 0.0180481 5.50724
RightShoulder  4.15487 16.428 13.9305
RightArm  -70.9098 49.5389 -24.7465
RightForeArm  -23.0706 16.046 4.16054
RightHand  1.53569 10.1585 10.8498
LeftUpLeg  -70.9312 13.1385 -10.3584
LeftLeg  37.8672 -0.722049 -0.22901
LeftFoot  -3.09403 -0.278058 4.11534
LeftToes  1.06246e-005 4.65856e-005 -8.18501e-006
406
root  -40.0707 37.219 -30.7323 32.9308 -86.7285 5.98281
RightUpLeg  -75.1994 -16.8446 20.0149
RightLeg  35.8311 2.23942 1.47117
RightFoot  -0.492404 0.934556 -9.83529
RightToes  0.00048216 0.542163 -0.142577
Spine  74.4006 -4.95902 7.38617
Spine1  0.477509 1.43229 -6.03794
HEad  -44.6332 -5.75788 -3.41885
LeftShoulder1  6.56192 -29.0836 -12.9071
LeftArm  -86.7744 -59.3712 28.8288
LeftForeArm  -4.25738 -16.5556 -0.46504
LeftHand  -0.25398 0.0180481 5.50724
RightShoulder  4.17055 16.8455 13.5318
RightArm  -72.408 48.9187 -26.6354
RightForeArm  -22.5071 15.2665 3.75973
RightHand  1.68546 11.225 11.138
LeftUpLeg  -71.7048 13.3621 -10.6645
LeftLeg  37.7032 -1.0816 -0.524459
LeftFoot  -3.48295 -0.230078 3.65672
LeftToes  1.06246e-005 4.65856e-005 -8.18501e-006
407
root  -40.455 37.2629 -30.8688 30.5793 -86.5266 9.49397
RightUpLeg  -75.7313 -16.632 20.094
RightLeg  35.91 1.9619 1.25953
RightFoot  -1.20865 0.771636 -8.7634
RightToes  0.00048216 0.542163 -0.142577
Spine  74.5598 -5.0051 7.14749
Spine1  0.730627 1.30536 -6.43094
HEad  -44.6623 -5.63177 -3.00039
LeftShoulder1  6.34803 -28.8287 -12.3632
LeftArm  -89.7852 -58.8948 30.2971
LeftForeArm  -1.3593 -17.504 -0.899048
LeftHand  -0.25398 0.0180481 5.50724
RightShoulder  3.94453 16.4283 12.7505
RightArm  -74.6395 49.1278 -25.9618
RightForeArm  -20.5046 15.5919 3.42349
RightHand  1.71797 11.4832 11.1757
LeftUpLeg  -72.1826 13.3096 -10.7649
LeftLeg  37.4478 -1.4075 -0.785655
LeftFoot  -3.58412 -0.196758 3.22082
LeftToes  1.06246e-005 4.65856e-005 -8.18501e-006
